# xmcd
#
# Track frame offsets:
#	150
#	10962
#	29222
#	40810
#	53168
#	60514
#	76324
#	93101
#	105860
#	117022
#
# Disc length: 1742 seconds
# Revision: 0
# Processed by: cddbd v1.5.2PL0 Copyright (c) Steve Scherf et al.
# Submitted via: dBpowerAMP V12.0
#
DISCID=6f06cc0a
DTITLE=Waylon Jennings - This Time [RCA]
DYEAR=1974
DGENRE=Country
TTITLE0=This Time
TTITLE1=Louisiana Woman
TTITLE2=Pick Up the Tempo
TTITLE3=Slow Rollin' Roll
TTITLE4=Heaven or Hell
TTITLE5=It's Not Supposed to Be That Way
TTITLE6=Slow Movin' Outlaw
TTITLE7=Mona
TTITLE8=Walkin'
TTITLE9=If You Could Touch Her at All
EXTD=
EXTT0=
EXTT1=
EXTT2=
EXTT3=
EXTT4=
EXTT5=
EXTT6=
EXTT7=
EXTT8=
EXTT9=
PLAYORDER=
